<svg height="512pt" viewBox="0 -86 512 512" width="512pt" xmlns="http://www.w3.org/2000/svg"><path d="m512 0v339.546875h-512v-339.546875zm0 0" fill="#84606f"/><path d="m462 0h50v339.546875h-50zm0 0" fill="#74505d"/><path d="m156 239.660156v-139.773437c0-16.558594 13.421875-29.980469 29.980469-29.980469h140.039062c16.558594 0 29.980469 13.421875 29.980469 29.980469v139.773437c0 16.558594-13.421875 29.980469-29.980469 29.980469h-140.039062c-16.558594 0-29.980469-13.421875-29.980469-29.980469zm0 0" fill="#f0e9ed"/><path d="m326 69.90625h-50c16.570312 0 30 13.414062 30 29.960938v139.8125c0 16.546874-13.429688 29.960937-30 29.960937h50c16.570312 0 30-13.414063 30-29.960937v-139.8125c0-16.546876-13.429688-29.960938-30-29.960938zm0 0" fill="#ded4d8"/><path d="m412 239.660156v-139.773437c0-16.558594 13.421875-29.980469 29.980469-29.980469h70.019531v199.734375h-70.019531c-16.558594 0-29.980469-13.421875-29.980469-29.980469zm0 0" fill="#f0e9ed"/><path d="m462 69.90625h50v199.734375h-50zm0 0" fill="#ded4d8"/><path d="m100 99.886719v139.773437c0 16.558594-13.421875 29.980469-29.980469 29.980469h-70.019531v-199.734375h70.019531c16.558594 0 29.980469 13.421875 29.980469 29.980469zm0 0" fill="#f0e9ed"/><path d="m70 69.90625h-50c16.570312 0 30 13.414062 30 29.960938v139.8125c0 16.546874-13.429688 29.960937-30 29.960937h50c16.570312 0 30-13.414063 30-29.960937v-139.8125c0-16.546876-13.429688-29.960938-30-29.960938zm0 0" fill="#ded4d8"/><g fill="#673c4e"><path d="m484 310.03125h-50c-4.144531 0-7.5-3.351562-7.5-7.492188 0-4.136718 3.355469-7.488281 7.5-7.488281h50c4.144531 0 7.5 3.351563 7.5 7.488281 0 4.140626-3.355469 7.492188-7.5 7.492188zm0 0"/><path d="m384 310.03125h-50c-4.144531 0-7.5-3.351562-7.5-7.492188 0-4.136718 3.355469-7.488281 7.5-7.488281h50c4.144531 0 7.5 3.351563 7.5 7.488281 0 4.140626-3.355469 7.492188-7.5 7.492188zm0 0"/><path d="m284 310.03125h-50c-4.144531 0-7.5-3.351562-7.5-7.492188 0-4.136718 3.355469-7.488281 7.5-7.488281h50c4.144531 0 7.5 3.351563 7.5 7.488281 0 4.140626-3.355469 7.492188-7.5 7.492188zm0 0"/><path d="m184 310.03125h-50c-4.144531 0-7.5-3.351562-7.5-7.488281s3.355469-7.492188 7.5-7.492188h50c4.144531 0 7.5 3.355469 7.5 7.492188s-3.355469 7.488281-7.5 7.488281zm0 0"/><path d="m84 310.03125h-50c-4.144531 0-7.5-3.351562-7.5-7.488281s3.355469-7.492188 7.5-7.492188h50c4.144531 0 7.5 3.355469 7.5 7.492188s-3.355469 7.488281-7.5 7.488281zm0 0"/><path d="m484 41.890625h-50c-4.144531 0-7.5-3.355469-7.5-7.492187 0-4.136719 3.355469-7.488282 7.5-7.488282h50c4.144531 0 7.5 3.351563 7.5 7.488282 0 4.136718-3.355469 7.492187-7.5 7.492187zm0 0"/><path d="m384 41.890625h-50c-4.144531 0-7.5-3.355469-7.5-7.492187 0-4.136719 3.355469-7.488282 7.5-7.488282h50c4.144531 0 7.5 3.351563 7.5 7.488282 0 4.136718-3.355469 7.492187-7.5 7.492187zm0 0"/><path d="m284 41.890625h-50c-4.144531 0-7.5-3.355469-7.5-7.492187 0-4.136719 3.355469-7.488282 7.5-7.488282h50c4.144531 0 7.5 3.351563 7.5 7.488282 0 4.136718-3.355469 7.492187-7.5 7.492187zm0 0"/><path d="m184 41.890625h-50c-4.144531 0-7.5-3.355469-7.5-7.492187 0-4.136719 3.355469-7.488282 7.5-7.488282h50c4.144531 0 7.5 3.351563 7.5 7.488282 0 4.136718-3.355469 7.492187-7.5 7.492187zm0 0"/><path d="m84 41.890625h-50c-4.144531 0-7.5-3.355469-7.5-7.492187 0-4.136719 3.355469-7.488282 7.5-7.488282h50c4.144531 0 7.5 3.351563 7.5 7.488282 0 4.136718-3.355469 7.492187-7.5 7.492187zm0 0"/></g></svg>